REM DIRINDEX 1\8,1\2\11,1\3\12,1\3\14,1\5\15,1\5\16,1\6\17,1\6\18,1\4\19,1\4\20,1\4\21,1\4\22,1\7\23,1\7\24,1\7\25,1\2\9\26,1\2\9\27,1\2\10\28,1\2\10\29,1\2\10\30,1\2\10\31,1\2\10\32,1\3\13\33,1\3\13\34,1\3\13\35
REM DIRNAME folder01,folder02,folder03,folder04,folder05,folder06,folder07,folder08,folder09,folder10,folder11,folder12,folder13,folder14,folder15,folder16,folder17,folder18,folder19,folder20,folder21,folder22,folder23,folder24,folder25,folder26,folder27,folder28,folder29,folder30,folder31,folder32,folder33,folder34,folder35
TITLE ""
FILE "1-18 018_UNIT2_SET4.mp3" MP3
  TRACK 01 AUDIO
    TITLE "11:cjc123_0899"
    INDEX 01 00:00:00
  TRACK 02 AUDIO
    TITLE "0:"
    INDEX 01 00:02:47
  TRACK 03 AUDIO
    TITLE "28:cjc123_0900"
    INDEX 01 00:03:23
  TRACK 04 AUDIO
    TITLE "0:"
    INDEX 01 00:04:44
  TRACK 05 AUDIO
    TITLE "29:cjc123_0901"
    INDEX 01 00:04:52
  TRACK 06 AUDIO
    TITLE "0:"
    INDEX 01 00:05:46
  TRACK 07 AUDIO
    TITLE "30:cjc123_0902"
    INDEX 01 00:05:65
  TRACK 08 AUDIO
    TITLE "0:"
    INDEX 01 00:06:73
  TRACK 09 AUDIO
    TITLE "31:cjc123_0903"
    INDEX 01 00:07:45
  TRACK 10 AUDIO
    TITLE "0:"
    INDEX 01 00:11:48
  TRACK 11 AUDIO
    TITLE "32:cjc123_0904"
    INDEX 01 00:12:03
  TRACK 12 AUDIO
    TITLE "0:"
    INDEX 01 00:16:40
  TRACK 13 AUDIO
    TITLE "28:cjc123_0905"
    INDEX 01 00:17:08
  TRACK 14 AUDIO
    TITLE "0:"
    INDEX 01 00:18:48
  TRACK 15 AUDIO
    TITLE "29:cjc123_0906"
    INDEX 01 00:18:62
  TRACK 16 AUDIO
    TITLE "0:"
    INDEX 01 00:20:00
  TRACK 17 AUDIO
    TITLE "30:cjc123_0907"
    INDEX 01 00:20:12
  TRACK 18 AUDIO
    TITLE "0:"
    INDEX 01 00:21:33
  TRACK 19 AUDIO
    TITLE "31:cjc123_0908"
    INDEX 01 00:22:17
  TRACK 20 AUDIO
    TITLE "0:"
    INDEX 01 00:26:07
  TRACK 21 AUDIO
    TITLE "32:cjc123_0909"
    INDEX 01 00:26:36
  TRACK 22 AUDIO
    TITLE "0:"
    INDEX 01 00:29:70
  TRACK 23 AUDIO
    TITLE "28:cjc123_0910"
    INDEX 01 00:30:42
  TRACK 24 AUDIO
    TITLE "0:"
    INDEX 01 00:31:65
  TRACK 25 AUDIO
    TITLE "29:cjc123_0911"
    INDEX 01 00:32:00
  TRACK 26 AUDIO
    TITLE "0:"
    INDEX 01 00:33:22
  TRACK 27 AUDIO
    TITLE "30:cjc123_0912"
    INDEX 01 00:33:28
  TRACK 28 AUDIO
    TITLE "0:"
    INDEX 01 00:34:47
  TRACK 29 AUDIO
    TITLE "31:cjc123_0913"
    INDEX 01 00:35:15
  TRACK 30 AUDIO
    TITLE "0:"
    INDEX 01 00:38:47
  TRACK 31 AUDIO
    TITLE "32:cjc123_0914"
    INDEX 01 00:39:15
  TRACK 32 AUDIO
    TITLE "0:"
    INDEX 01 00:42:29
  TRACK 33 AUDIO
    TITLE "28:cjc123_0915"
    INDEX 01 00:42:74
  TRACK 34 AUDIO
    TITLE "0:"
    INDEX 01 00:44:01
  TRACK 35 AUDIO
    TITLE "29:cjc123_0916"
    INDEX 01 00:44:18
  TRACK 36 AUDIO
    TITLE "0:"
    INDEX 01 00:45:39
  TRACK 37 AUDIO
    TITLE "30:cjc123_0917"
    INDEX 01 00:45:47
  TRACK 38 AUDIO
    TITLE "0:"
    INDEX 01 00:46:49
  TRACK 39 AUDIO
    TITLE "31:cjc123_0918"
    INDEX 01 00:47:40
  TRACK 40 AUDIO
    TITLE "0:"
    INDEX 01 00:50:60
  TRACK 41 AUDIO
    TITLE "32:cjc123_0919"
    INDEX 01 00:51:24
  TRACK 42 AUDIO
    TITLE "0:"
    INDEX 01 00:55:22
  TRACK 43 AUDIO
    TITLE "28:cjc123_0920"
    INDEX 01 00:55:50
  TRACK 44 AUDIO
    TITLE "0:"
    INDEX 01 00:56:74
  TRACK 45 AUDIO
    TITLE "29:cjc123_0921"
    INDEX 01 00:57:07
  TRACK 46 AUDIO
    TITLE "0:"
    INDEX 01 00:58:26
  TRACK 47 AUDIO
    TITLE "30:cjc123_0922"
    INDEX 01 00:58:32
  TRACK 48 AUDIO
    TITLE "0:"
    INDEX 01 00:59:43
  TRACK 49 AUDIO
    TITLE "31:cjc123_0923"
    INDEX 01 01:00:15
  TRACK 50 AUDIO
    TITLE "0:"
    INDEX 01 01:04:39
  TRACK 51 AUDIO
    TITLE "32:cjc123_0924"
    INDEX 01 01:04:72
  TRACK 52 AUDIO
    TITLE "0:"
    INDEX 01 01:09:14
  TRACK 53 AUDIO
    TITLE "28:cjc123_0925"
    INDEX 01 01:09:57
  TRACK 54 AUDIO
    TITLE "0:"
    INDEX 01 01:10:51
  TRACK 55 AUDIO
    TITLE "29:cjc123_0926"
    INDEX 01 01:11:07
  TRACK 56 AUDIO
    TITLE "0:"
    INDEX 01 01:12:40
  TRACK 57 AUDIO
    TITLE "30:cjc123_0927"
    INDEX 01 01:12:48
  TRACK 58 AUDIO
    TITLE "0:"
    INDEX 01 01:13:55
  TRACK 59 AUDIO
    TITLE "31:cjc123_0928"
    INDEX 01 01:14:29
  TRACK 60 AUDIO
    TITLE "0:"
    INDEX 01 01:17:12
  TRACK 61 AUDIO
    TITLE "32:cjc123_0929"
    INDEX 01 01:17:57
  TRACK 62 AUDIO
    TITLE "0:"
    INDEX 01 01:21:61
  TRACK 63 AUDIO
    TITLE "28:cjc123_0930"
    INDEX 01 01:22:35
  TRACK 64 AUDIO
    TITLE "0:"
    INDEX 01 01:23:42
  TRACK 65 AUDIO
    TITLE "29:cjc123_0931"
    INDEX 01 01:23:65
  TRACK 66 AUDIO
    TITLE "0:"
    INDEX 01 01:25:31
  TRACK 67 AUDIO
    TITLE "30:cjc123_0932"
    INDEX 01 01:25:39
  TRACK 68 AUDIO
    TITLE "0:"
    INDEX 01 01:26:42
  TRACK 69 AUDIO
    TITLE "31:cjc123_0933"
    INDEX 01 01:27:16
  TRACK 70 AUDIO
    TITLE "0:"
    INDEX 01 01:31:06
  TRACK 71 AUDIO
    TITLE "32:cjc123_0934"
    INDEX 01 01:31:47
  TRACK 72 AUDIO
    TITLE "0:"
    INDEX 01 01:34:65
  TRACK 73 AUDIO
    TITLE "28:cjc123_0935"
    INDEX 01 01:35:33
  TRACK 74 AUDIO
    TITLE "0:"
    INDEX 01 01:36:52
  TRACK 75 AUDIO
    TITLE "29:cjc123_0936"
    INDEX 01 01:36:70
  TRACK 76 AUDIO
    TITLE "0:"
    INDEX 01 01:38:06
  TRACK 77 AUDIO
    TITLE "30:cjc123_0937"
    INDEX 01 01:38:16
  TRACK 78 AUDIO
    TITLE "0:"
    INDEX 01 01:39:25
  TRACK 79 AUDIO
    TITLE "31:cjc123_0938"
    INDEX 01 01:39:74
  TRACK 80 AUDIO
    TITLE "0:"
    INDEX 01 01:43:72
  TRACK 81 AUDIO
    TITLE "32:cjc123_0939"
    INDEX 01 01:44:28
  TRACK 82 AUDIO
    TITLE "0:"
    INDEX 01 01:48:03
  TRACK 83 AUDIO
    TITLE "28:cjc123_0940"
    INDEX 01 01:48:30
  TRACK 84 AUDIO
    TITLE "0:"
    INDEX 01 01:49:39
  TRACK 85 AUDIO
    TITLE "29:cjc123_0941"
    INDEX 01 01:49:49
  TRACK 86 AUDIO
    TITLE "0:"
    INDEX 01 01:50:68
  TRACK 87 AUDIO
    TITLE "30:cjc123_0942"
    INDEX 01 01:51:01
  TRACK 88 AUDIO
    TITLE "0:"
    INDEX 01 01:51:74
  TRACK 89 AUDIO
    TITLE "31:cjc123_0943"
    INDEX 01 01:52:42
  TRACK 90 AUDIO
    TITLE "0:"
    INDEX 01 01:56:63
  TRACK 91 AUDIO
    TITLE "32:cjc123_0944"
    INDEX 01 01:57:31
  TRACK 92 AUDIO
    TITLE "0:"
    INDEX 01 02:01:46
  TRACK 93 AUDIO
    TITLE "28:cjc123_0945"
    INDEX 01 02:02:18
  TRACK 94 AUDIO
    TITLE "0:"
    INDEX 01 02:03:16
  TRACK 95 AUDIO
    TITLE "29:cjc123_0946"
    INDEX 01 02:03:28
  TRACK 96 AUDIO
    TITLE "0:"
    INDEX 01 02:04:70
  TRACK 97 AUDIO
    TITLE "30:cjc123_0947"
    INDEX 01 02:05:03
  TRACK 98 AUDIO
    TITLE "0:"
    INDEX 01 02:05:74
  TRACK 99 AUDIO
    TITLE "31:cjc123_0948"
    INDEX 01 02:06:61
  TRACK 100 AUDIO
    TITLE "0:"
    INDEX 01 02:10:40
  TRACK 101 AUDIO
    TITLE "32:cjc123_0949"
    INDEX 01 02:10:71
  TRACK 102 AUDIO
    TITLE "0:"
    INDEX 01 02:14:24
  TRACK 103 AUDIO
    TITLE "28:cjc123_0950"
    INDEX 01 02:15:00
  TRACK 104 AUDIO
    TITLE "0:"
    INDEX 01 02:16:03
  TRACK 105 AUDIO
    TITLE "29:cjc123_0951"
    INDEX 01 02:16:19
  TRACK 106 AUDIO
    TITLE "0:"
    INDEX 01 02:17:61
  TRACK 107 AUDIO
    TITLE "30:cjc123_0952"
    INDEX 01 02:17:67
  TRACK 108 AUDIO
    TITLE "0:"
    INDEX 01 02:18:70
  TRACK 109 AUDIO
    TITLE "31:cjc123_0953"
    INDEX 01 02:19:46
  TRACK 110 AUDIO
    TITLE "0:"
    INDEX 01 02:23:01
  TRACK 111 AUDIO
    TITLE "32:cjc123_0954"
    INDEX 01 02:23:38
  TRACK 112 AUDIO
    TITLE "0:"
    INDEX 01 02:26:64
  TRACK 113 AUDIO
    TITLE "28:cjc123_0955"
    INDEX 01 02:27:16
  TRACK 114 AUDIO
    TITLE "0:"
    INDEX 01 02:28:20
  TRACK 115 AUDIO
    TITLE "29:cjc123_0956"
    INDEX 01 02:28:39
  TRACK 116 AUDIO
    TITLE "0:"
    INDEX 01 02:29:47
  TRACK 117 AUDIO
    TITLE "30:cjc123_0957"
    INDEX 01 02:29:53
  TRACK 118 AUDIO
    TITLE "0:"
    INDEX 01 02:30:58
  TRACK 119 AUDIO
    TITLE "31:cjc123_0958"
    INDEX 01 02:31:32
  TRACK 120 AUDIO
    TITLE "0:"
    INDEX 01 02:34:24
  TRACK 121 AUDIO
    TITLE "32:cjc123_0959"
    INDEX 01 02:34:60
  TRACK 122 AUDIO
    TITLE "0:"
    INDEX 01 02:39:12
  TRACK 123 AUDIO
    TITLE "28:cjc123_0960"
    INDEX 01 02:39:41
  TRACK 124 AUDIO
    TITLE "0:"
    INDEX 01 02:40:62
  TRACK 125 AUDIO
    TITLE "29:cjc123_0961"
    INDEX 01 02:41:03
  TRACK 126 AUDIO
    TITLE "0:"
    INDEX 01 02:42:47
  TRACK 127 AUDIO
    TITLE "30:cjc123_0962"
    INDEX 01 02:42:53
  TRACK 128 AUDIO
    TITLE "0:"
    INDEX 01 02:43:68
  TRACK 129 AUDIO
    TITLE "31:cjc123_0963"
    INDEX 01 02:44:42
  TRACK 130 AUDIO
    TITLE "0:"
    INDEX 01 02:48:64
  TRACK 131 AUDIO
    TITLE "32:cjc123_0964"
    INDEX 01 02:49:22
  TRACK 132 AUDIO
    TITLE "0:"
    INDEX 01 02:53:69
  TRACK 133 AUDIO
    TITLE "28:cjc123_0965"
    INDEX 01 02:54:45
  TRACK 134 AUDIO
    TITLE "0:"
    INDEX 01 02:55:60
  TRACK 135 AUDIO
    TITLE "29:cjc123_0966"
    INDEX 01 02:56:00
  TRACK 136 AUDIO
    TITLE "0:"
    INDEX 01 02:57:37
  TRACK 137 AUDIO
    TITLE "30:cjc123_0967"
    INDEX 01 02:57:43
  TRACK 138 AUDIO
    TITLE "0:"
    INDEX 01 02:58:52
  TRACK 139 AUDIO
    TITLE "31:cjc123_0968"
    INDEX 01 02:59:26
  TRACK 140 AUDIO
    TITLE "0:"
    INDEX 01 03:02:30
  TRACK 141 AUDIO
    TITLE "32:cjc123_0969"
    INDEX 01 03:02:74
  TRACK 142 AUDIO
    TITLE "0:"
    INDEX 01 03:07:02
  TRACK 143 AUDIO
    TITLE "28:cjc123_0970"
    INDEX 01 03:07:57
  TRACK 144 AUDIO
    TITLE "0:"
    INDEX 01 03:08:64
  TRACK 145 AUDIO
    TITLE "29:cjc123_0971"
    INDEX 01 03:09:01
  TRACK 146 AUDIO
    TITLE "0:"
    INDEX 01 03:10:05
  TRACK 147 AUDIO
    TITLE "30:cjc123_0972"
    INDEX 01 03:10:24
  TRACK 148 AUDIO
    TITLE "0:"
    INDEX 01 03:11:33
  TRACK 149 AUDIO
    TITLE "31:cjc123_0973"
    INDEX 01 03:12:05
  TRACK 150 AUDIO
    TITLE "0:"
    INDEX 01 03:15:64
  TRACK 151 AUDIO
    TITLE "32:cjc123_0974"
    INDEX 01 03:16:17
  TRACK 152 AUDIO
    TITLE "0:"
    INDEX 01 03:19:64
